<?xml version="1.0" ?><svg data-name="Layer 1" id="Layer_1" viewBox="0 0 64 64" xmlns="http://www.w3.org/2000/svg"><defs><style>.cls-1{fill:#4fbe9f;}.cls-2{fill:#09816c;}.cls-3{fill:#ebeef2;}</style></defs><title/><path class="cls-1" d="M45.28,46.58A22.24,22.24,0,0,1,32,50.66a22.24,22.24,0,0,1-13.28-4.08c-3.29-2.46-5.1-5.65-5.1-9s1.81-6.54,5.1-9A22.23,22.23,0,0,1,32,24.51a22.23,22.23,0,0,1,13.28,4.07c3.29,2.46,5.1,5.66,5.1,9s-1.81,6.54-5.1,9Z"/><path class="cls-2" d="M56,30A6,6,0,0,0,45.7,25.71a25.14,25.14,0,0,0-12.4-3.77,6.6,6.6,0,0,1,8-6.43l.27.06c0,.07,0,.14,0,.2a5,5,0,1,0,.79-2.69L41.89,13a9.2,9.2,0,0,0-11.19,9,25.17,25.17,0,0,0-12.4,3.77,6,6,0,1,0-7,9.59A11.53,11.53,0,0,0,11,37.58c0,8.66,9.4,15.67,21,15.67s21-7,21-15.67a11.53,11.53,0,0,0-.23-2.28A6,6,0,0,0,56,30ZM46.61,13.34a2.43,2.43,0,1,1-2.43,2.43,2.43,2.43,0,0,1,2.43-2.43ZM10.61,30a3.43,3.43,0,0,1,5.57-2.67A15.36,15.36,0,0,0,12,32.74,3.42,3.42,0,0,1,10.61,30ZM45.28,46.58A22.24,22.24,0,0,1,32,50.66a22.24,22.24,0,0,1-13.28-4.08c-3.29-2.46-5.1-5.65-5.1-9s1.81-6.54,5.1-9A22.23,22.23,0,0,1,32,24.51a22.23,22.23,0,0,1,13.28,4.07c3.29,2.46,5.1,5.66,5.1,9s-1.81,6.54-5.1,9ZM52,32.74a15.22,15.22,0,0,0-4.13-5.45A3.42,3.42,0,1,1,52,32.74Zm0,0"/><path class="cls-2" d="M27.08,33.92a2.74,2.74,0,1,1-2.74-2.74,2.74,2.74,0,0,1,2.74,2.74Zm0,0"/><path class="cls-2" d="M42.4,33.92a2.74,2.74,0,1,1-2.74-2.74,2.73,2.73,0,0,1,2.74,2.74Zm0,0"/><path class="cls-3" d="M38.5,40.59A10.48,10.48,0,0,1,23.77,40a1.3,1.3,0,0,0-1.9,1.78,13.09,13.09,0,0,0,18.38.75,1.3,1.3,0,1,0-1.75-1.92Zm0,0"/><path class="cls-2" d="M46.61,13.34a2.43,2.43,0,1,1-2.43,2.43,2.43,2.43,0,0,1,2.43-2.43Z"/><path class="cls-1" d="M44.18,15.77c0,.06,0,.11,0,.16a2.4,2.4,0,0,0,3.62-2.1c0-.05,0-.1,0-.16a2.41,2.41,0,0,0-3.63,2.1Z"/><path class="cls-1" d="M10.61,30a3.43,3.43,0,0,1,5.57-2.67A15.36,15.36,0,0,0,12,32.74,3.42,3.42,0,0,1,10.61,30Z"/><path class="cls-1" d="M52,32.74a15.22,15.22,0,0,0-4.13-5.45A3.42,3.42,0,1,1,52,32.74Z"/></svg>